#!OML:ASF H:\GeneralSubjects\Female5\Project 1\Capture day 1\Session 1\Female5.ASF
:FULLY-SPECIFIED
:DEGREES
189
root -24.7996 16.4687 4.97454 -11.8025 85.6523 -36.3629
lowerback 7.41526 1.41603 4.08985
upperback -5.55202 2.54371 0.783068
thorax -9.96198 1.01069 -1.86466
lowerneck -16.8258 -1.15171 -0.021043
upperneck 32.0107 -0.0399089 -2.32011
head 13.6428 -0.0543055 -0.855005
rclavicle -1.02374e-014 -2.10712e-014
rhumerus -86.4951 9.22182 -58.0007
rradius 11.2678
rwrist 14.3427
rhand -17.4494 -20.124
rfingers 7.12502
rthumb 8.80167 -49.9205
lclavicle -1.02374e-014 -2.10712e-014
lhumerus -76.6862 -3.85684 16.4994
lradius 13.8343
lwrist -65.6083
lhand -28.2162 29.9245
lfingers 7.12502
lthumb -1.59473 59.8983
rfemur -11.7625 22.0325 29.5732
rtibia -10.4458
rfoot -10.9418 -23.6629
rtoes -22.4802
lfemur -15.7035 -32.8052 -20.4601
ltibia -1.16847
lfoot -35.1173 5.73871
ltoes -30.6674
190
root -24.7522 16.4856 4.9845 -12.3853 85.5299 -37.491
lowerback 7.40586 1.42102 4.06691
upperback -5.2424 2.52822 0.800031
thorax -9.61541 1.01402 -1.82501
lowerneck -16.8112 -1.10091 0.047316
upperneck 31.1985 -0.108322 -2.20299
head 13.2897 -0.0796188 -0.827382
rclavicle -1.89839e-014 -4.21423e-014
rhumerus -87.6815 10.0928 -58.8359
rradius 8.26204
rwrist 12.8599
rhand -18.3893 -21.3139
rfingers 7.12502
rthumb 7.89459 -51.1464
lclavicle -1.89839e-014 -4.21423e-014
lhumerus -76.0606 -3.39529 6.7875
lradius 13.0452
lwrist -73.3381
lhand -28.3568 30.555
lfingers 7.12502
lthumb -1.73047 60.5278
rfemur -12.6248 21.8225 29.5144
rtibia -9.73289
rfoot -11.2302 -23.257
rtoes -23.668
lfemur -16.3924 -32.3078 -20.0561
ltibia -0.748361
lfoot -35.0933 5.29291
ltoes -31.7526
191
root -24.7078 16.5008 4.99286 -12.7678 85.393 -38.4132
lowerback 7.52087 1.42823 4.02165
upperback -4.96861 2.52216 0.816272
thorax -9.38407 1.02008 -1.78029
lowerneck -16.8459 -1.02986 0.143018
upperneck 30.4642 -0.141548 -2.09681
head 12.9875 -0.0867378 -0.804585
rclavicle -9.44227e-015 2.78299e-015
rhumerus -88.467 10.9044 -59.6844
rradius 5.31831
rwrist 11.4335
rhand -19.4733 -22.4484
rfingers 7.12502
rthumb 6.8483 -52.3177
lclavicle -9.44227e-015 2.78299e-015
lhumerus -75.1973 -2.72038 -1.8898
lradius 12.5723
lwrist -80.2535
lhand -28.3329 31.2812
lfingers 7.12502
lthumb -1.70747 61.2541
rfemur -13.5855 21.6215 29.4301
rtibia -8.86519
rfoot -11.4142 -22.9337
rtoes -25.5011
lfemur -17.1056 -31.8256 -19.6625
ltibia -0.278157
lfoot -35.1301 4.68158
ltoes -32.4735
192
root -24.667 16.5134 4.99954 -12.769 85.2527 -38.9545
lowerback 7.78516 1.43675 3.95123
upperback -4.74863 2.52532 0.825677
thorax -9.30112 1.02778 -1.73644
lowerneck -16.921 -0.950556 0.255841
upperneck 29.8318 -0.147787 -2.01717
head 12.7413 -0.0818868 -0.792058
rclavicle 1.07344e-014 2.78299e-014
rhumerus -88.9101 11.6693 -60.531
rradius 2.59224
rwrist 10.0127
rhand -20.434 -23.8064
rfingers 7.12502
rthumb 5.92083 -53.7037
lclavicle 1.07344e-014 2.78299e-014
lhumerus -74.3169 -1.96527 -8.90518
lradius 12.393
lwrist -85.9101
lhand -28.0278 31.8822
lfingers 7.12502
lthumb -1.4128 61.8573
rfemur -14.6962 21.4184 29.2864
rtibia -7.77886
rfoot -11.5424 -22.6664
rtoes -27.6902
lfemur -17.9145 -31.1518 -19.332
ltibia 0.349258
lfoot -35.0127 3.98601
ltoes -33.0832
193
root -24.63 16.5213 5.00479 -12.2552 85.1207 -39.0002
lowerback 8.18302 1.45006 3.84812
upperback -4.58973 2.53996 0.824211
thorax -9.36447 1.03868 -1.69348
lowerneck -17.0225 -0.876843 0.361969
upperneck 29.3014 -0.14347 -1.95589
head 12.5458 -0.0736735 -0.784712
rclavicle 9.54166e-015 -1.31198e-014
rhumerus -89.0891 12.371 -61.3589
rradius 0.260332
rwrist 8.6057
rhand -21.3017 -25.3437
rfingers 7.12502
rthumb 5.08306 -55.2628
lclavicle 9.54166e-015 -1.31198e-014
lhumerus -73.5327 -1.16502 -14.1402
lradius 12.4405
lwrist -90.2032
lhand -27.6465 32.2222
lfingers 7.12502
lthumb -1.04452 62.1994
rfemur -16.0267 21.1982 29.0432
rtibia -6.40645
rfoot -11.7543 -22.407
rtoes -29.6389
lfemur -18.9185 -30.054 -19.1241
ltibia 1.26985
lfoot -34.5076 3.09879
ltoes -33.5121
194
root -24.5971 16.5223 5.00908 -11.3322 85.002 -38.6906
lowerback 8.69781 1.46537 3.72754
upperback -4.5093 2.56308 0.809266
thorax -9.583 1.05018 -1.66221
lowerneck -17.1482 -0.810299 0.441832
upperneck 28.874 -0.131916 -1.89411
head 12.3993 -0.0631941 -0.772341
rclavicle -2.17669e-014 -1.59028e-014
rhumerus -89.05 12.9842 -62.1732
rradius -1.61922
rwrist 7.18611
rhand -22.0509 -26.7759
rfingers 7.12502
rthumb 4.35959 -56.7111
lclavicle -2.17669e-014 -1.59028e-014
lhumerus -72.9535 -0.485573 -17.3599
lradius 12.6767
lwrist -92.6558
lhand -27.3568 32.5801
lfingers 7.12502
lthumb -0.764715 62.5585
rfemur -17.6509 20.9465 28.6812
rtibia -4.70214
rfoot -12.0635 -22.1611
rtoes -31.1301
lfemur -20.2296 -28.3875 -19.062
ltibia 2.61584
lfoot -33.475 1.94834
ltoes -33.8109
195
root -24.5683 16.5137 5.01263 -10.0975 84.906 -38.1593
lowerback 9.28305 1.4824 3.59893
upperback -4.50474 2.59224 0.781721
thorax -9.92699 1.06148 -1.64524
lowerneck -17.3065 -0.775765 0.50195
upperneck 28.5124 -0.153566 -1.8368
head 12.2866 -0.069181 -0.76404
rclavicle -1.44119e-014 1.66979e-014
rhumerus -88.8037 13.4577 -62.9681
rradius -3.02574
rwrist 5.75744
rhand -22.9102 -28.0001
rfingers 7.12502
rthumb 3.52987 -57.9507
lclavicle -1.44119e-014 1.66979e-014
lhumerus -72.592 0.23251 -19.0999
lradius 13.0109
lwrist -93.7127
lhand -27.436 32.9979
lfingers 7.12502
lthumb -0.841222 62.9759
rfemur -19.6293 20.64 28.1836
rtibia -2.64244
rfoot -12.1741 -22.0249
rtoes -32.6804
lfemur -21.9516 -26.1622 -19.1573
ltibia 4.51002
lfoot -31.937 0.537054
ltoes -34.0872
196
root -24.5437 16.4927 5.01592 -8.71095 84.8371 -37.5891
lowerback 9.94274 1.49367 3.46886
upperback -4.58527 2.61844 0.744948
thorax -10.4109 1.06768 -1.64178
lowerneck -17.5352 -0.768324 0.545898
upperneck 28.2001 -0.21016 -1.76913
head 12.2084 -0.0910332 -0.755238
rclavicle 1.43125e-014 3.93594e-014
rhumerus -88.3392 13.7575 -63.7576
rradius -3.99712
rwrist 4.37033
rhand -23.8687 -29.03
rfingers 7.12502
rthumb 2.60418 -58.9938
lclavicle 1.43125e-014 3.93594e-014
lhumerus -72.4698 0.97204 -19.5023
lradius 13.3767
lwrist -93.2918
lhand -28.0413 33.8374
lfingers 7.12502
lthumb -1.42585 63.8123
rfemur -22.4815 20.2554 27.5089
rtibia 0.32357
rfoot -11.4077 -22.5851
rtoes -36.9892
lfemur -24.1599 -23.5297 -19.3924
ltibia 7.05139
lfoot -30.0533 -1.04455
ltoes -34.4227
197
root -24.5224 16.4559 5.01937 -7.44398 84.7953 -37.2536
lowerback 10.6791 1.49212 3.35866
upperback -4.75959 2.63625 0.706958
thorax -11.0483 1.06475 -1.65459
lowerneck -17.8328 -0.768933 0.556638
upperneck 27.9261 -0.276923 -1.66803
head 12.1598 -0.116664 -0.730476
rclavicle 8.94531e-015 2.06736e-014
rhumerus -87.6188 13.8795 -64.5552
rradius -4.70827
rwrist 3.08888
rhand -25.1526 -29.6472
rfingers 7.12502
rthumb 1.36417 -59.6226
lclavicle 8.94531e-015 2.06736e-014
lhumerus -72.5651 1.74242 -18.7845
lradius 13.7193
lwrist -91.5277
lhand -29.1577 34.9426
lfingers 7.12502
lthumb -2.50399 64.9077
rfemur -25.0394 15.8832 28.7048
rtibia 3.38491
rfoot -10.2738 -18.9887
rtoes -40.0863
lfemur -26.8695 -20.7257 -19.7324
ltibia 10.2821
lfoot -28.0593 -2.66527
ltoes -34.9192
198
root -24.5017 16.3994 5.02318 -6.43174 84.7897 -37.2615
lowerback 11.4788 1.47093 3.27837
upperback -5.01416 2.63749 0.671677
thorax -11.8197 1.04865 -1.68249
lowerneck -18.1887 -0.787553 0.568394
upperneck 27.6588 -0.374129 -1.55529
head 12.1257 -0.154615 -0.706828
rclavicle 1.0138e-014 -9.93923e-016
rhumerus -86.6302 13.8211 -65.3744
rradius -5.18231
rwrist 1.90456
rhand -26.4961 -30.1135
rfingers 7.12502
rthumb 0.0665709 -60.0932
lclavicle 1.0138e-014 -9.93923e-016
lhumerus -72.8377 2.55155 -17.0381
lradius 14.002
lwrist -88.5561
lhand -30.5478 36.182
lfingers 7.12502
lthumb -3.84647 66.127
rfemur -27.9161 12.4655 29.8471
rtibia 6.81699
rfoot -10.4052 -16.2241
rtoes -40.3312
lfemur -30.0081 -18.0152 -20.1644
ltibia 14.1489
lfoot -26.1533 -4.1726
ltoes -35.6062
199
root -24.4788 16.3191 5.02762 -5.64984 84.8247 -37.5504
lowerback 12.329 1.42814 3.22075
upperback -5.32983 2.61742 0.63798
thorax -12.7002 1.01803 -1.7201
lowerneck -18.5978 -0.811434 0.588818
upperneck 27.3709 -0.486129 -1.43505
head 12.0941 -0.198017 -0.684642
rclavicle -4.77083e-015 1.63003e-014
rhumerus -85.3691 13.578 -66.2319
rradius -5.4163
rwrist 0.830902
rhand -27.799 -30.4421
rfingers 7.12502
rthumb -1.19178 -60.4186
lclavicle -4.77083e-015 1.63003e-014
lhumerus -73.2208 3.40222 -14.2763
lradius 14.2234
lwrist -84.4889
lhand -31.9758 37.3087
lfingers 7.12502
lthumb -5.22536 67.2242
rfemur -30.984 9.99047 30.9002
rtibia 10.5081
rfoot -10.7497 -14.6483
rtoes -40.4622
lfemur -33.4648 -15.6196 -20.6658
ltibia 18.5172
lfoot -24.5262 -5.4075
ltoes -36.4842
200
root -24.4518 16.2125 5.03242 -5.02886 84.905 -38.0166
lowerback 13.2027 1.32095 2.96596
upperback -5.68111 2.49429 0.752765
thorax -13.6675 0.963859 -1.45857
lowerneck -19.0434 -0.764705 0.620154
upperneck 27.0233 -0.464551 -1.44789
head 12.048 -0.199918 -0.693541
rclavicle 1.64991e-014 9.54166e-015
rhumerus -83.7356 13.4474 -67.057
rradius -5.36058
rwrist -0.152266
rhand -28.9117 -30.738
rfingers 7.12502
rthumb -2.26641 -60.7057
lclavicle 1.64991e-014 9.54166e-015
lhumerus -73.9417 4.14387 -10.1774
lradius 14.4686
lwrist -79.1613
lhand -33.0453 38.1024
lfingers 7.12502
lthumb -6.25794 67.99
rfemur -34.1679 8.41704 31.7845
rtibia 14.4015
rfoot -11.3776 -13.7738
rtoes -39.2002
lfemur -37.127 -13.6766 -21.2059
ltibia 23.2211
lfoot -23.2561 -6.2803
ltoes -37.4391
201
root -24.4199 16.078 5.03731 -4.48606 85.0397 -38.5388
lowerback 14.091 1.20553 2.75152
upperback -6.0529 2.36255 0.845719
thorax -14.678 0.904746 -1.23539
lowerneck -19.4992 -0.742848 0.65206
upperneck 26.5832 -0.48616 -1.45095
head 11.9671 -0.220922 -0.705147
rclavicle 7.85199e-015 4.87022e-014
rhumerus -81.8442 13.0967 -67.9476
rradius -5.01761
rwrist -1.06349
rhand -29.7361 -30.9892
rfingers 7.12502
rthumb -3.06263 -60.9469
lclavicle 7.85199e-015 4.87022e-014
lhumerus -74.5171 4.66363 -4.14306
lradius 14.9048
lwrist -72.1107
lhand -33.4594 38.4729
lfingers 7.12502
lthumb -6.65773 68.3483
rfemur -37.4129 7.65118 32.4089
rtibia 18.4581
rfoot -12.1178 -13.4939
rtoes -37.2706
lfemur -40.8722 -12.2529 -21.7495
ltibia 28.0847
lfoot -22.3113 -6.81958
ltoes -38.322
